<svg xmlns="http://www.w3.org/2000/svg" xmlns:xlink="http://www.w3.org/1999/xlink" viewBox="0,0,256,256" width="26px" height="26px" fill-rule="nonzero"><g fill="#ce3b5d" fill-rule="nonzero" stroke="none" stroke-width="1" stroke-linecap="butt" stroke-linejoin="miter" stroke-miterlimit="10" stroke-dasharray="" stroke-dashoffset="0" font-family="none" font-weight="none" font-size="none" text-anchor="none" style="mix-blend-mode: normal"><g transform="scale(9.84615,9.84615)"><path d="M9,5v2h-2v13h2v2h2v-2h2v2h2v-2.09375c0.26563,-0.03516 0.55469,-0.05078 0.8125,-0.09375c0.60156,-0.19922 1.09375,-0.41797 1.59375,-0.71875c0.39844,-0.30078 0.79297,-0.6875 1.09375,-1.1875c0.30078,-0.5 0.40625,-1.01953 0.40625,-1.71875c0,-0.80078 -0.32031,-1.49219 -0.71875,-2.09375c-0.5,-0.60156 -1.10156,-0.98828 -2,-1.1875c0.69922,-0.30078 1.19922,-0.69531 1.5,-1.09375c0.30078,-0.39844 0.5,-0.92578 0.5,-1.625c0,-0.60156 -0.08203,-1.10156 -0.28125,-1.5c-0.19922,-0.39844 -0.50781,-0.80078 -0.90625,-1c-0.39844,-0.19922 -0.80469,-0.39844 -1.40625,-0.5c-0.19531,-0.03125 -0.39453,-0.0625 -0.59375,-0.09375v-2.09375h-2v2h-2v-2zM10,9h2.90625c0.30078,0 0.58203,-0.00781 0.78125,0.09375c0.30078,0 0.51953,0.11719 0.71875,0.21875c0.19922,0.10156 0.39844,0.17578 0.5,0.375c0.10156,0.19922 0.1875,0.41797 0.1875,0.71875c0,0.60156 -0.10156,0.98828 -0.5,1.1875c-0.39844,0.30078 -0.80469,0.40625 -1.40625,0.40625h-3.1875zM10,14h3.5c0.69922,0 1.3125,0.19922 1.8125,0.5c0.5,0.30078 0.6875,0.89453 0.6875,1.59375c0,0.30078 -0.08594,0.70703 -0.1875,0.90625c-0.19922,0.30078 -0.42578,0.49219 -0.625,0.59375c-0.19922,0.10156 -0.48047,0.21094 -0.78125,0.3125c-0.30078,0.10156 -0.69922,0.09375 -1,0.09375h-3.40625z"></path></g></g></svg>